<svg width="70" height="70" viewBox="0 0 70 70" fill="none" xmlns="http://www.w3.org/2000/svg">
<path fill-rule="evenodd" clip-rule="evenodd" d="M35 0C15.6654 0 0 16.061 0 35.8838C0 51.7325 10.0275 65.1889 23.9371 69.9345C25.6929 70.2635 26.3288 69.163 26.3288 68.2061C26.3288 67.3509 26.2967 65.0962 26.285 62.1059C16.5433 64.2679 14.4929 57.2945 14.4929 57.2945C12.8975 53.1469 10.6079 52.0375 10.6079 52.0375C7.42875 49.8187 10.8471 49.8665 10.8471 49.8665C14.3558 50.1237 16.2021 53.5566 16.2021 53.5566C19.3229 59.0468 24.3921 57.4589 26.3871 56.5469C26.7079 54.2234 27.6179 52.6445 28.6096 51.7474C20.8396 50.8473 12.67 47.7643 12.67 34.0149C12.67 30.0886 14.0379 26.8889 16.2692 24.3771C15.9163 23.48 14.7087 19.8228 16.6104 14.8828C16.6104 14.8828 19.5504 13.9259 26.2383 18.5609C29.0943 17.7652 32.0405 17.361 35 17.3588C37.975 17.3708 40.9704 17.7655 43.7617 18.5609C50.4496 13.9259 53.3779 14.8828 53.3779 14.8828C55.2913 19.8228 54.0954 23.48 53.7279 24.3771C55.9738 26.8889 57.3183 30.0886 57.3183 34.0149C57.3183 47.8002 49.14 50.8234 41.3467 51.7235C42.6008 52.821 43.715 55.0158 43.715 58.359C43.715 63.1585 43.6829 67.025 43.6829 68.2061C43.6829 69.163 44.3071 70.2844 46.0863 69.9345C59.9842 65.1799 70 51.7325 70 35.8838C70 16.061 54.3346 0 35 0Z" fill="white"/>
</svg>
