<svg width="58" height="55" viewBox="0 0 58 55" fill="none" xmlns="http://www.w3.org/2000/svg">
<path fill-rule="evenodd" clip-rule="evenodd" d="M28.8416 0C13.1453 0 0.427734 12.5507 0.427734 28.041C0.427734 40.4257 8.56832 50.9411 19.8605 54.6495C21.2859 54.9066 21.8021 54.0466 21.8021 53.2989C21.8021 52.6306 21.7761 50.8687 21.7666 48.5319C13.858 50.2214 12.1935 44.7721 12.1935 44.7721C10.8983 41.531 9.03952 40.6641 9.03952 40.6641C6.45859 38.9302 9.23368 38.9676 9.23368 38.9676C12.0822 39.1686 13.581 41.8512 13.581 41.8512C16.1146 46.1414 20.2299 44.9006 21.8495 44.1879C22.1099 42.3722 22.8487 41.1385 23.6537 40.4374C17.3458 39.7341 10.7136 37.3249 10.7136 26.5805C10.7136 23.5124 11.8241 21.012 13.6355 19.0492C13.349 18.3481 12.3687 15.4903 13.9125 11.63C13.9125 11.63 16.2993 10.8822 21.7287 14.5042C24.0472 13.8824 26.439 13.5665 28.8416 13.5648C31.2568 13.5742 33.6886 13.8826 35.9546 14.5042C41.384 10.8822 43.7613 11.63 43.7613 11.63C45.3146 15.4903 44.3438 18.3481 44.0455 19.0492C45.8687 21.012 46.9603 23.5124 46.9603 26.5805C46.9603 37.3529 40.3209 39.7154 33.994 40.4187C35.0122 41.2763 35.9167 42.9915 35.9167 45.604C35.9167 49.3545 35.8907 52.3759 35.8907 53.2989C35.8907 54.0466 36.3974 54.9229 37.8418 54.6495C49.1244 50.9341 57.2556 40.4257 57.2556 28.041C57.2556 12.5507 44.538 0 28.8416 0Z" fill="white"/>
</svg>
