<svg width="70" height="70" viewBox="0 0 70 70" fill="none" xmlns="http://www.w3.org/2000/svg">
<path d="M35 0C15.6719 0 0 15.6719 0 35C0 54.3281 15.6719 70 35 70C54.3281 70 70 54.3281 70 35C70 15.6719 54.3281 0 35 0ZM48.0469 49.5C44.875 52.4219 40.5469 54.1406 35.3828 54.1406C27.9063 54.1406 21.4375 49.8516 18.2891 43.6016C16.9922 41.0156 16.25 38.0938 16.25 35C16.25 31.9062 16.9922 28.9844 18.2891 26.3984C21.4375 20.1406 27.9063 15.8516 35.3828 15.8516C40.5391 15.8516 44.8672 17.75 48.1875 20.8359L42.7031 26.3281C40.7188 24.4297 38.1953 23.4688 35.3906 23.4688C30.4062 23.4688 26.1875 26.8359 24.6797 31.3594C24.2969 32.5078 24.0781 33.7344 24.0781 35C24.0781 36.2656 24.2969 37.4922 24.6797 38.6406C26.1875 43.1641 30.4063 46.5312 35.3828 46.5312C37.9609 46.5312 40.1484 45.8516 41.8594 44.7031C43.8906 43.3438 45.2344 41.3203 45.6797 38.9219H35.3828V31.5156H53.4062C53.6328 32.7734 53.75 34.0781 53.75 35.4297C53.75 41.2656 51.6641 46.1641 48.0469 49.5Z" fill="white"/>
</svg>
