<svg width="40" height="89" viewBox="0 0 40 89" fill="none" xmlns="http://www.w3.org/2000/svg">
<path d="M19.7075 69.4981C15.9828 69.5141 12.2687 69.0992 8.63935 68.2616C7.56051 68.0183 6.50229 67.6911 5.47432 67.2832L8.03215 71.6532L9.03262 85.3075C9.03262 86.8397 13.8966 88.0793 19.8932 88.0793C25.8898 88.0793 30.7537 86.8397 30.7537 85.3075L31.5465 71.5053L33.966 67.2706C32.9295 67.6851 31.8616 68.0165 30.7726 68.2616C27.1442 69.0989 23.4312 69.5138 19.7075 69.4981ZM34.0477 25.068C29.3516 25.652 24.6222 25.9263 19.89 25.8892C15.1579 25.9263 10.4284 25.652 5.7323 25.068C4.24072 24.8871 2.76722 24.5798 1.32768 24.1493C0.952815 24.033 0.589469 23.8824 0.242253 23.6994L2.58614 45.2884C2.69521 44.9171 2.81686 44.5459 2.9511 44.1746C3.22299 43.4158 3.53813 42.6731 3.89495 41.9503C4.24768 41.2424 4.64271 40.5563 5.0779 39.8959C5.48848 39.271 5.94265 38.676 6.43704 38.1151C6.88498 37.6031 7.38006 37.1344 7.91574 36.7151C8.38556 36.3462 8.90042 36.0385 9.44792 35.7996C9.93204 35.5919 10.4533 35.4849 10.9801 35.4849C11.5771 35.4886 12.162 35.6539 12.6727 35.9632C13.2931 36.3566 13.8159 36.8859 14.2018 37.5111C14.305 37.6558 14.3758 37.821 14.4094 37.9956C14.4377 38.1481 14.4524 38.3029 14.4535 38.4581C14.4697 38.7481 14.3828 39.0345 14.2081 39.2666C14.1405 39.3575 14.0528 39.4316 13.9518 39.4829C13.8508 39.5342 13.7393 39.5614 13.626 39.5624C13.513 39.5568 13.4026 39.5256 13.3034 39.4711C13.2042 39.4166 13.1187 39.3402 13.0534 39.2478C12.8289 38.9567 12.6309 38.6461 12.4619 38.3196C12.3015 38.007 12.0698 37.7365 11.7855 37.53C11.5488 37.3695 11.2692 37.284 10.9832 37.2845C10.457 37.3126 9.95334 37.5077 9.54545 37.8414C8.9807 38.2662 8.47219 38.7609 8.03215 39.3138C7.49857 39.9734 7.01781 40.674 6.59435 41.4092C6.14017 42.1877 5.73458 42.9936 5.37993 43.8223C5.03956 44.6119 4.75877 45.4259 4.53991 46.2574C4.34471 46.9597 4.239 47.6838 4.22529 48.4125C4.22608 48.6314 4.24079 48.8499 4.26934 49.0669C4.29425 49.2772 4.34935 49.4827 4.43294 49.6773C4.50239 49.8491 4.60997 50.003 4.74756 50.1272C4.89427 50.2477 5.08005 50.3104 5.26982 50.3034C5.5547 50.2901 5.83213 50.2081 6.07838 50.0643C6.41196 49.8844 6.72796 49.6738 7.02223 49.435C7.3634 49.1608 7.68901 48.8677 7.99754 48.5572C8.32474 48.2321 8.62887 47.9018 8.90993 47.5662C9.19098 47.2306 9.44058 46.9097 9.65871 46.6035C9.84418 46.3501 10.0083 46.0817 10.1495 45.8012L11.043 43.127C11.1173 42.8781 11.2668 42.6583 11.4709 42.4977C11.629 42.3819 11.8192 42.3181 12.0152 42.3153C12.1061 42.3154 12.1964 42.3302 12.2826 42.3593C12.3758 42.3902 12.4609 42.4415 12.5317 42.5096C12.6025 42.5776 12.6571 42.6606 12.6916 42.7526C12.7357 42.8669 12.757 42.9887 12.7545 43.1112C12.7561 43.4555 12.7234 43.7991 12.657 44.1369C12.5941 44.4561 12.5122 44.7713 12.4116 45.0807C12.313 45.3849 12.2029 45.69 12.0813 45.9963C11.9596 46.3025 11.8411 46.6234 11.7257 46.959C11.6691 47.0742 11.6228 47.1943 11.5873 47.3177L11.3419 48.0759C11.2454 48.3716 11.1406 48.7114 11.0273 49.0952L10.6812 50.2436C10.5617 50.6337 10.4484 51.0165 10.3414 51.3919C10.2345 51.7674 10.1369 52.1072 10.0488 52.4113L9.83175 53.1727C9.77512 53.3772 9.73736 53.4873 9.72478 53.5376C9.68574 53.6763 9.63414 53.8111 9.57062 53.9403C9.50086 54.0882 9.41766 54.2293 9.32207 54.3619C9.23303 54.4815 9.12705 54.5875 9.00746 54.6765C8.90691 54.7588 8.78183 54.8053 8.65194 54.8087C8.56617 54.8159 8.47999 54.8009 8.40172 54.765C8.32346 54.7292 8.25577 54.6738 8.20519 54.6042C8.09172 54.3707 8.04387 54.1108 8.06675 53.8522V53.6918C8.06378 53.6352 8.06378 53.5785 8.06675 53.5219C8.1075 53.2894 8.16856 53.061 8.24923 52.8392C8.33942 52.5057 8.44429 52.1281 8.56385 51.7066C8.6834 51.285 8.81764 50.8487 8.96656 50.3977L9.35668 49.1865C9.0169 49.5661 8.64879 49.9437 8.25238 50.3191C7.86842 50.6835 7.46062 51.0219 7.03167 51.3322C6.6379 51.6182 6.21627 51.8638 5.7732 52.0652C5.39097 52.2451 4.97487 52.3416 4.55249 52.3484C4.14657 52.3594 3.74563 52.2569 3.39471 52.0526C3.33493 52.018 3.28145 51.9771 3.22796 51.9362L4.53362 65.6283C4.8734 66.4809 11.2727 68.5731 19.7138 68.5731C28.155 68.5731 34.5606 66.4778 34.8941 65.6252L36.7818 49.3469L36.3319 49.7622C35.8464 50.2177 35.3382 50.6482 34.8091 51.0521C34.3783 51.3855 33.9094 51.6664 33.4122 51.889C32.9513 52.0875 32.4542 52.1882 31.9524 52.1848C31.5511 52.2114 31.1527 52.1004 30.8229 51.8702C30.6921 51.7662 30.5877 51.6327 30.5183 51.4807C30.4489 51.3287 30.4163 51.1625 30.4234 50.9955V50.9106C30.4206 50.8781 30.4206 50.8455 30.4234 50.813C30.468 50.5331 30.5698 50.2654 30.7223 50.0265C30.9128 49.7065 31.1229 49.3987 31.3515 49.1047C31.5948 48.7859 31.8538 48.4629 32.1286 48.1357C32.4034 47.8085 32.6582 47.4991 32.8931 47.2075C33.1018 46.9511 33.2961 46.6832 33.4751 46.4053C33.6032 46.2322 33.6825 46.0279 33.7048 45.8138C33.7064 45.7725 33.6984 45.7315 33.6815 45.6938C33.6646 45.6561 33.6392 45.6229 33.6073 45.5967C33.514 45.5365 33.4033 45.5088 33.2927 45.518C33.0167 45.5226 32.7455 45.5904 32.4998 45.7163C32.2093 45.8605 31.9377 46.0402 31.6913 46.2511C31.4135 46.4873 31.1537 46.7439 30.9142 47.0188C30.6621 47.3065 30.4248 47.6068 30.2031 47.9186C29.9829 48.229 29.7816 48.5436 29.5991 48.8624C29.4166 49.1812 29.2614 49.4717 29.1334 49.7339L28.9698 50.0863C28.8985 50.2373 28.822 50.4082 28.7402 50.5991C28.6584 50.79 28.5703 50.985 28.4759 51.1843L28.2211 51.7537L28.0134 52.232L27.8844 52.5214C27.8592 52.5738 27.8068 52.7028 27.7271 52.9084L27.4723 53.5754L27.1577 54.3776L26.8588 55.1736L26.6134 55.8343C26.5442 56.0231 26.497 56.1489 26.4781 56.2213C26.4161 56.4121 26.3404 56.5983 26.2516 56.7782C26.1708 56.9437 26.0705 57.099 25.9527 57.2406C25.8451 57.3681 25.715 57.4748 25.5688 57.5553C25.4203 57.6362 25.2534 57.6774 25.0843 57.6748C24.8808 57.6835 24.6799 57.6261 24.5117 57.5112C24.4274 57.4314 24.363 57.3328 24.3236 57.2235C24.2843 57.1143 24.2711 56.9973 24.2852 56.882C24.2856 56.7251 24.3046 56.5688 24.3418 56.4164C24.3807 56.2563 24.429 56.0987 24.4866 55.9444C24.5432 55.7871 24.603 55.6298 24.6659 55.4882C24.7288 55.3467 24.7823 55.1988 24.8326 55.0604C25.1787 54.3011 25.5311 53.5408 25.8898 52.7794C26.2484 52.018 26.5924 51.2629 26.9217 50.5142L27.1199 50.0517L27.0601 50.1114C26.664 50.4927 26.2436 50.8479 25.8017 51.1748C25.4194 51.463 25.0069 51.7088 24.5715 51.9079C24.2 52.082 23.7957 52.1753 23.3854 52.1816C23.1596 52.1887 22.9351 52.1457 22.7279 52.0558C22.5612 51.9795 22.4162 51.8627 22.3063 51.716C22.196 51.5626 22.1189 51.388 22.0798 51.2032C22.0798 51.1371 22.0546 51.0647 22.0451 50.9955C21.9334 51.0825 21.8201 51.1674 21.7054 51.2504C21.3373 51.5138 20.9443 51.7404 20.5318 51.9268C20.2072 52.0829 19.8536 52.1697 19.4936 52.1816C19.3536 52.1856 19.2143 52.1597 19.0851 52.1054C18.956 52.0511 18.84 51.9698 18.7448 51.867C18.5233 51.5651 18.4213 51.1919 18.4585 50.8193C18.4662 50.4091 18.5179 50.0009 18.6127 49.6018C18.4299 49.9197 18.2193 50.2208 17.9835 50.5016C17.7293 50.8087 17.4423 51.0873 17.1277 51.3322C16.8003 51.5856 16.4379 51.7902 16.0517 51.9394C15.6381 52.0976 15.1983 52.1766 14.7555 52.1722C14.5494 52.1732 14.3442 52.1467 14.1451 52.0935C13.9555 52.0428 13.78 51.9492 13.6323 51.8198C13.4752 51.6767 13.3535 51.4989 13.2768 51.3007C13.1791 51.0405 13.1332 50.7637 13.1415 50.4858C13.1415 50.4858 13.1415 50.3631 13.1793 50.1398C13.2351 49.7819 13.3172 49.4286 13.4247 49.0827C13.5631 48.6002 13.7728 47.971 14.0539 47.195C14.335 46.4189 14.7419 45.4897 15.2746 44.4075C15.373 44.1611 15.5334 43.9443 15.7402 43.7782C15.9062 43.656 16.1068 43.5899 16.3128 43.5895C16.4076 43.5904 16.5018 43.6042 16.5928 43.6304C16.6894 43.657 16.7809 43.6995 16.8634 43.7562C16.9457 43.8128 17.0145 43.8869 17.0648 43.9733C17.1189 44.069 17.145 44.178 17.1403 44.2879C17.141 44.3612 17.1314 44.4343 17.112 44.505C17.0608 44.6807 16.9912 44.8505 16.9043 45.0115C16.7994 45.2213 16.6757 45.4604 16.5331 45.7288C16.3904 45.9973 16.2415 46.2878 16.0863 46.6003C15.929 46.9107 15.7832 47.2327 15.649 47.5662C15.5148 47.8993 15.3992 48.2396 15.3029 48.5856C15.2096 48.9137 15.1547 49.2515 15.1393 49.5923C15.1385 49.7235 15.1721 49.8526 15.2369 49.9667C15.268 50.0217 15.3141 50.0668 15.3697 50.0969C15.4254 50.1269 15.4884 50.1407 15.5515 50.1366C15.9825 50.1319 16.4006 49.9885 16.7439 49.7276C17.1385 49.4379 17.4911 49.0948 17.7915 48.7083C18.1156 48.296 18.406 47.8583 18.6599 47.3995C18.92 46.9338 19.136 46.507 19.308 46.119C19.4317 45.8496 19.5368 45.5721 19.6226 45.2884C19.7129 45.0103 19.8179 44.7373 19.9372 44.4704C20.0307 44.2435 20.1568 44.0315 20.3116 43.8411C20.3746 43.7616 20.455 43.6975 20.5466 43.6539C20.6383 43.6103 20.7387 43.5882 20.8402 43.5895C20.9457 43.5856 21.0506 43.6073 21.146 43.6528C21.2413 43.6982 21.3242 43.7661 21.3876 43.8506C21.5245 44.0312 21.5955 44.2533 21.589 44.4798C21.5769 44.6733 21.5333 44.8635 21.46 45.043C21.374 45.2821 21.2691 45.5548 21.1453 45.861C21.0216 46.1672 20.879 46.4955 20.7175 46.8457C20.5644 47.196 20.4217 47.5505 20.2896 47.9091C20.1664 48.2558 20.0613 48.6086 19.975 48.9662C19.8927 49.2807 19.8493 49.604 19.846 49.929C19.839 49.9855 19.8452 50.0428 19.8641 50.0965C19.883 50.1502 19.9141 50.1988 19.955 50.2384C19.9958 50.278 20.0453 50.3077 20.0996 50.3249C20.1538 50.3422 20.2113 50.3467 20.2676 50.338C20.5256 50.3224 20.7775 50.2527 21.0069 50.1335C21.3362 49.9756 21.6474 49.7826 21.935 49.5577L22.1773 49.3658C22.2587 49.0161 22.3638 48.6724 22.4919 48.337C22.7163 47.7455 22.9439 47.1572 23.1746 46.572L23.8038 44.9675L26.714 37.6275C26.7966 37.3726 26.9601 37.1517 27.1797 36.9983C27.3556 36.8828 27.5607 36.8195 27.7712 36.8158C27.9683 36.8155 28.1594 36.8833 28.3123 37.0077C28.3996 37.086 28.4673 37.1838 28.51 37.2931C28.5526 37.4024 28.5689 37.5201 28.5577 37.6369C28.5554 37.7842 28.5278 37.93 28.4759 38.0679C28.4151 38.235 28.3458 38.3988 28.2682 38.5587C28.1088 38.9153 27.918 39.3516 27.6957 39.8675C27.4733 40.3835 27.2363 40.9446 26.9846 41.5507C26.7308 42.1569 26.4718 42.7861 26.2075 43.4384L25.4304 45.3545L24.7194 47.1226L24.1468 48.573C24.0673 48.7728 23.998 48.9765 23.9391 49.1833C23.8758 49.3872 23.8419 49.5991 23.8385 49.8126C23.8338 49.9071 23.8532 50.0013 23.8951 50.0863C23.9184 50.1225 23.9514 50.1514 23.9903 50.1698C24.0292 50.1881 24.0726 50.1952 24.1153 50.1901C24.2912 50.1787 24.4627 50.1304 24.6187 50.0485C24.8457 49.9399 25.0644 49.8147 25.2731 49.6741C25.508 49.5189 25.7513 49.3406 26.003 49.1393C26.2547 48.9379 26.5064 48.7282 26.7581 48.51C27.0077 48.3003 27.2468 48.0843 27.4754 47.8619C27.704 47.6396 27.9075 47.4404 28.0858 47.2642C28.1278 47.2218 28.1781 47.1886 28.2336 47.1666C28.3406 46.852 28.4413 46.5374 28.5262 46.2228L28.737 45.6407C28.8294 45.3892 28.9344 45.1424 29.0516 44.9014C29.1566 44.6771 29.2876 44.4659 29.4418 44.2722C29.4966 44.1991 29.5673 44.1394 29.6485 44.0975C29.7296 44.0555 29.8192 44.0324 29.9105 44.0299C30.0104 44.0208 30.1111 44.0317 30.2067 44.062C30.3023 44.0922 30.3909 44.1412 30.4674 44.2061C30.5291 44.2769 30.5762 44.3592 30.6059 44.4483C30.6356 44.5374 30.6473 44.6316 30.6405 44.7252C30.6383 44.7979 30.632 44.8704 30.6216 44.9423C30.6216 45.0398 30.5933 45.1468 30.5744 45.2569L30.5115 45.5715C30.4962 45.6454 30.4752 45.718 30.4485 45.7886C30.6856 45.5306 30.9414 45.2747 31.2162 45.021C31.4851 44.7717 31.7711 44.5415 32.072 44.332C32.3547 44.1341 32.6573 43.9665 32.9749 43.8317C33.2663 43.7069 33.5797 43.6416 33.8967 43.6398C34.1098 43.64 34.3216 43.6708 34.526 43.731C34.7255 43.7876 34.9139 43.878 35.0828 43.9985C35.2464 44.1158 35.3827 44.2671 35.4824 44.4421C35.5895 44.6341 35.6428 44.8515 35.6366 45.0713C35.629 45.4166 35.5486 45.7565 35.4006 46.0686C35.2337 46.4391 35.0359 46.7949 34.8091 47.132C34.5721 47.4886 34.3162 47.8357 34.0415 48.1734C33.7667 48.5111 33.5087 48.8184 33.2675 49.0952L32.6603 49.8C32.5472 49.9105 32.4601 50.0448 32.4055 50.1932C32.4041 50.2764 32.4358 50.3567 32.4935 50.4166C32.5754 50.4814 32.6791 50.5118 32.783 50.5016C32.9555 50.4794 33.1205 50.4169 33.2644 50.3191C33.5737 50.1293 33.8701 49.9191 34.1516 49.6899C34.5333 49.3899 35.0168 48.9883 35.6019 48.4849C36.0047 48.1388 36.4734 47.7267 37.0051 47.2579L39.5472 23.7246C39.2001 23.9077 38.8367 24.0583 38.4618 24.1745C37.0185 24.597 35.5418 24.8959 34.0477 25.068ZM19.89 19.4899C8.90363 19.4899 0 20.7169 0 22.2333C0 23.7498 8.87846 24.9705 19.89 24.9705C30.9016 24.9705 39.7801 23.7435 39.7801 22.227C39.7801 20.7106 30.8638 19.4899 19.89 19.4899ZM27.8309 23.0356C27.8309 23.3911 26.7738 23.6648 25.4682 23.6648C24.1625 23.6648 23.1054 23.3754 23.1054 23.0356C23.1054 22.6958 24.1625 22.4064 25.4682 22.4064C26.7738 22.4064 27.8215 22.6738 27.8215 23.0293L27.8309 23.0356Z" fill="white"/>
<path d="M23.5713 22.742C23.5598 22.7587 23.5532 22.7783 23.5524 22.7986C23.5524 23.0283 24.4051 23.2139 25.4401 23.2139C26.4752 23.2139 27.3278 23.0283 27.3278 22.7986L29.8133 12.7309L39.6985 2.29507C39.9062 2.05911 39.4846 1.32606 38.7799 0.696824C38.0751 0.0675921 37.3138 -0.143201 37.0778 0.0959076L26.5665 11.1798L23.5713 22.742Z" fill="white"/>
</svg>
