<svg width="55" height="55" viewBox="0 0 55 55" fill="none" xmlns="http://www.w3.org/2000/svg">
<path d="M0.513428 11.7073C0.513428 8.70555 1.70587 5.82674 3.82844 3.70417C5.951 1.58161 8.82982 0.38916 11.8316 0.38916H43.5224C46.5242 0.38916 49.403 1.58161 51.5256 3.70417C53.6481 5.82674 54.8406 8.70555 54.8406 11.7073V43.3981C54.8406 46.3999 53.6481 49.2787 51.5256 51.4013C49.403 53.5239 46.5242 54.7163 43.5224 54.7163H11.8316C8.82982 54.7163 5.951 53.5239 3.82844 51.4013C1.70587 49.2787 0.513428 46.3999 0.513428 43.3981V11.7073ZM25.4134 18.4982C24.813 18.4982 24.2373 18.7367 23.8127 19.1612C23.3882 19.5857 23.1497 20.1615 23.1497 20.7618V38.8709C23.1497 39.4712 22.9112 40.047 22.4867 40.4715C22.0622 40.896 21.4865 41.1345 20.8861 41.1345H16.3588C15.7585 41.1345 15.1827 41.373 14.7582 41.7975C14.3337 42.222 14.0952 42.7978 14.0952 43.3981C14.0952 43.9985 14.3337 44.5743 14.7582 44.9988C15.1827 45.4233 15.7585 45.6618 16.3588 45.6618H20.8861C22.6872 45.6618 24.4145 44.9463 25.688 43.6728C26.9615 42.3992 27.677 40.6719 27.677 38.8709V20.7618C27.677 20.1615 27.4385 19.5857 27.014 19.1612C26.5895 18.7367 26.0137 18.4982 25.4134 18.4982ZM29.9406 25.2891V27.5527C29.9406 29.3538 30.6561 31.0811 31.9296 32.3546C33.2032 33.6282 34.9305 34.3436 36.7315 34.3436H38.9952C39.5955 34.3436 40.1713 34.5821 40.5958 35.0066C41.0203 35.4311 41.2588 36.0069 41.2588 36.6073V38.8709C41.2588 39.4712 41.0203 40.047 40.5958 40.4715C40.1713 40.896 39.5955 41.1345 38.9952 41.1345H32.2043C31.6039 41.1345 31.0281 41.373 30.6036 41.7975C30.1791 42.222 29.9406 42.7978 29.9406 43.3981C29.9406 43.9985 30.1791 44.5743 30.6036 44.9988C31.0281 45.4233 31.6039 45.6618 32.2043 45.6618H38.9952C40.7962 45.6618 42.5235 44.9463 43.797 43.6728C45.0706 42.3992 45.786 40.6719 45.786 38.8709V36.6073C45.786 34.8062 45.0706 33.0789 43.797 31.8054C42.5235 30.5318 40.7962 29.8164 38.9952 29.8164H36.7315C36.1312 29.8164 35.5554 29.5779 35.1309 29.1534C34.7064 28.7288 34.4679 28.1531 34.4679 27.5527V25.2891C34.4679 24.6887 34.7064 24.113 35.1309 23.6885C35.5554 23.264 36.1312 23.0255 36.7315 23.0255H43.5224C44.1228 23.0255 44.6985 22.787 45.123 22.3625C45.5476 21.938 45.786 21.3622 45.786 20.7618C45.786 20.1615 45.5476 19.5857 45.123 19.1612C44.6985 18.7367 44.1228 18.4982 43.5224 18.4982H36.7315C34.9305 18.4982 33.2032 19.2137 31.9296 20.4872C30.6561 21.7608 29.9406 23.488 29.9406 25.2891Z" fill="white"/>
</svg>
