<svg width="65" height="52" viewBox="0 0 65 52" fill="none" xmlns="http://www.w3.org/2000/svg">
<path d="M57.8628 45.1925H51.5367V17.0375L32.5583 29.1039L13.58 17.0375V45.1925H7.25391V6.57996H11.0496L32.5583 20.2552L54.0671 6.57996H57.8628V45.1925ZM57.8628 0.144531H7.25391C3.74291 0.144531 0.927795 3.0083 0.927795 6.57996V45.1925C0.927795 46.8993 1.59429 48.5362 2.78067 49.743C3.96705 50.9499 5.57612 51.6279 7.25391 51.6279H57.8628C59.5406 51.6279 61.1497 50.9499 62.336 49.743C63.5224 48.5362 64.1889 46.8993 64.1889 45.1925V6.57996C64.1889 4.87318 63.5224 3.2363 62.336 2.02942C61.1497 0.822547 59.5406 0.144531 57.8628 0.144531Z" fill="white"/>
</svg>
