<svg width="61" height="55" viewBox="0 0 61 55" fill="none" xmlns="http://www.w3.org/2000/svg">
<path d="M20.4873 0.0259727C18.6464 -0.0979201 16.836 0.232461 15.25 1.14536C13.1346 2.36255 11.7251 4.44264 10.9691 6.84008C10.2131 9.23099 10.0389 11.9914 10.3155 15.0061C10.3417 15.3104 10.3961 15.6299 10.4332 15.9408C10.1456 16.0625 9.84061 16.1755 9.56175 16.3059C6.80804 17.5731 4.50093 19.1033 2.79946 20.953C1.10018 22.8049 0 25.061 0 27.4997C0 29.9363 1.10018 32.1946 2.79946 34.0465C4.49875 35.8962 6.80804 37.4264 9.56175 38.6936C9.84061 38.824 10.1456 38.937 10.4332 39.0587C10.3961 39.3695 10.3417 39.6891 10.3134 39.9934C10.0389 43.0081 10.2131 45.7663 10.9691 48.1616C11.7251 50.5568 13.1346 52.6348 15.25 53.8541C17.3654 55.0713 19.8729 55.2517 22.3304 54.7083C24.7878 54.1649 27.2692 52.9325 29.7462 51.1872C29.9968 51.0133 30.2473 50.8068 30.5 50.6199C30.7505 50.8068 31.0011 51.0111 31.2538 51.1872C33.7308 52.9325 36.2122 54.1649 38.6696 54.7083C41.1271 55.2517 43.6346 55.0735 45.75 53.8541C47.8654 52.6369 49.2749 50.5568 50.0309 48.1594C50.7869 45.7685 50.9611 43.0081 50.6845 39.9934C50.6583 39.6891 50.6039 39.3695 50.5668 39.0587C50.8544 38.937 51.1594 38.824 51.4383 38.6936C54.192 37.4264 56.4991 35.8962 58.2005 34.0465C59.8998 32.1946 61 29.9385 61 27.4997C61 25.0632 59.8998 22.8049 58.2005 20.953C56.5013 19.1033 54.192 17.5731 51.4383 16.3059C51.1594 16.1755 50.8544 16.0625 50.5668 15.9408C50.6039 15.6299 50.6583 15.3104 50.6866 15.0061C50.9611 11.9914 50.7869 9.23316 50.0309 6.8379C49.2749 4.44264 47.8654 2.36472 45.75 1.14536C43.6346 -0.0718373 41.1271 -0.252242 38.6696 0.291147C36.2122 0.834537 33.7308 2.06694 31.2538 3.81231C31.0033 3.9862 30.7527 4.19268 30.5 4.37961C30.2495 4.19268 29.9989 3.98837 29.7462 3.81231C27.2692 2.06694 24.7878 0.834537 22.3304 0.291147C21.7237 0.155507 21.1076 0.0661324 20.4873 0.0237993V0.0259727ZM20.2041 4.3557C20.5744 4.38178 20.9688 4.44264 21.3892 4.53828C23.0362 4.90126 25.0078 5.82285 27.0884 7.26609C25.2617 9.00082 23.5685 10.8703 22.0232 12.8587C19.5283 13.1981 17.0624 13.7242 14.6465 14.4323C14.433 11.9153 14.616 9.75047 15.1215 8.14639C15.6421 6.50318 16.4177 5.49464 17.4286 4.90996C18.1867 4.47524 19.0886 4.27093 20.2019 4.3557H20.2041ZM40.7981 4.3557C41.9092 4.27093 42.8133 4.47524 43.5714 4.90996C44.5823 5.49247 45.3579 6.50318 45.8785 8.14639C46.384 9.75047 46.567 11.9153 46.3535 14.4323C43.9376 13.7242 41.4717 13.1981 38.9768 12.8587C37.4315 10.8703 35.7383 9.00082 33.9116 7.26609C35.9922 5.82285 37.9638 4.90126 39.6108 4.53828C40.0312 4.44482 40.4256 4.38178 40.7981 4.3557ZM30.5 10.0222C31.2647 10.7286 32.0294 11.5132 32.794 12.3348C32.0297 12.3046 31.2649 12.2879 30.5 12.2848C29.7266 12.2848 28.9663 12.3087 28.206 12.3348C28.9685 11.5132 29.7353 10.7286 30.5 10.0222ZM30.5 16.632C32.6023 16.632 34.6393 16.7558 36.5978 16.9623C37.7992 18.6035 38.9126 20.3071 39.9332 22.0658C40.9833 23.8808 41.8939 25.7022 42.6956 27.4997C41.8717 29.3585 40.9496 31.1723 39.9332 32.9336C38.9126 34.6924 37.7992 36.396 36.5978 38.0371C34.6371 38.2436 32.6023 38.3675 30.5 38.3675C28.3977 38.3675 26.3607 38.2436 24.4022 38.0371C23.2008 36.396 22.0874 34.6924 21.0668 32.9336C20.0167 31.1187 19.1061 29.2973 18.3044 27.4997C19.1039 25.7022 20.0167 23.8808 21.0668 22.0658C22.1169 20.2509 23.2432 18.5512 24.4022 16.9623C26.4275 16.7448 28.463 16.6345 30.5 16.632ZM18.483 17.9361C18.08 18.5773 17.6791 19.2228 17.2935 19.8923C16.9141 20.5552 16.5466 21.2247 16.1911 21.9007C15.8644 20.8658 15.5773 19.8188 15.3306 18.762C16.3262 18.4556 17.3894 18.1839 18.483 17.9361ZM42.517 17.9361C43.6106 18.1839 44.6738 18.4556 45.6694 18.762C45.4385 19.7771 45.14 20.8313 44.8089 21.9007C44.4534 21.2247 44.0859 20.5552 43.7065 19.8923C43.3216 19.2333 42.9251 18.5811 42.517 17.9361ZM11.2284 20.3335C11.7861 22.6484 12.5551 25.0501 13.5529 27.4997C12.599 29.8269 11.8219 32.2224 11.2284 34.666C8.93868 33.5901 7.15007 32.3468 6.01286 31.1078C4.84732 29.8385 4.35714 28.6648 4.35714 27.4997C4.35714 26.3347 4.84732 25.161 6.01286 23.8916C7.15007 22.6527 8.93868 21.4094 11.2284 20.3335ZM49.7716 20.3335C52.0613 21.4094 53.8499 22.6527 54.9871 23.8916C56.1527 25.161 56.6429 26.3347 56.6429 27.4997C56.6429 28.6648 56.1527 29.8385 54.9871 31.1078C53.8499 32.3468 52.0613 33.5901 49.7716 34.666C49.1781 32.2224 48.401 29.8269 47.4471 27.4997C48.4449 25.0501 49.2139 22.6484 49.7716 20.3335ZM30.5 20.9791C26.9163 20.9791 23.9643 23.9242 23.9643 27.4997C23.9643 31.0752 26.9163 34.0204 30.5 34.0204C34.0838 34.0204 37.0357 31.0752 37.0357 27.4997C37.0357 23.9242 34.0838 20.9791 30.5 20.9791ZM30.5 25.3262C31.7287 25.3262 32.6786 26.2739 32.6786 27.4997C32.6786 28.7256 31.7287 29.6733 30.5 29.6733C29.2713 29.6733 28.3214 28.7256 28.3214 27.4997C28.3214 26.2739 29.2713 25.3262 30.5 25.3262ZM16.1911 33.0988C16.5463 33.7683 16.9057 34.4377 17.2913 35.1072C17.6791 35.7766 18.08 36.4222 18.483 37.0634C17.3894 36.8156 16.3262 36.5439 15.3306 36.2374C15.5615 35.2224 15.86 34.1682 16.1911 33.0988ZM44.8089 33.0988C45.14 34.1682 45.4406 35.2224 45.6694 36.2374C44.6738 36.5439 43.6106 36.8156 42.517 37.0634C42.92 36.4222 43.3209 35.7766 43.7087 35.1072C44.0943 34.4377 44.4538 33.7683 44.8089 33.0988ZM14.6465 40.5672C16.934 41.241 19.4024 41.78 22.0232 42.1408C23.6506 44.2274 25.3564 46.0924 27.0884 47.7334C25.0078 49.1766 23.0362 50.0982 21.3892 50.4612C19.7052 50.8351 18.4394 50.6699 17.4286 50.0895C16.4177 49.507 15.6421 48.4963 15.1215 46.8531C14.616 45.249 14.433 43.0841 14.6465 40.5672ZM46.3535 40.5672C46.567 43.0841 46.384 45.249 45.8785 46.8531C45.3579 48.4963 44.5823 49.5048 43.5714 50.0895C42.5606 50.6699 41.2948 50.8351 39.6108 50.4612C37.9638 50.0982 35.9922 49.1766 33.9116 47.7334C35.7383 45.9987 37.4315 44.1292 38.9768 42.1408C41.4717 41.8013 43.9376 41.2753 46.3535 40.5672ZM28.206 42.6647C28.9663 42.6907 29.7266 42.7146 30.5 42.7146C31.2734 42.7146 32.0337 42.6907 32.794 42.6647C32.0315 43.4863 31.2647 44.2709 30.5 44.9773C29.7061 44.2359 28.9408 43.4644 28.206 42.6647Z" fill="white"/>
</svg>
