<svg width="71" height="71" viewBox="0 0 71 71" fill="none" xmlns="http://www.w3.org/2000/svg">
<path fill-rule="evenodd" clip-rule="evenodd" d="M35.6091 0C42.5524 0 49.3398 2.05893 55.113 5.91644C60.8861 9.77394 65.3858 15.2568 68.0428 21.6715C70.6999 28.0863 71.3952 35.145 70.0406 41.9549C68.686 48.7648 65.3425 55.0201 60.4328 59.9298C55.5231 64.8394 49.2678 68.183 42.4579 69.5375C35.648 70.8921 28.5894 70.1969 22.1746 67.5398C15.7598 64.8827 10.277 60.3831 6.41949 54.6099C2.56199 48.8368 0.503052 42.0494 0.503052 35.106C0.503052 25.7953 4.20171 16.866 10.7854 10.2823C17.369 3.69866 26.2984 0 35.6091 0Z" fill="white"/>
<path d="M57.6305 15.0251C56.0407 8.79131 45.702 6.75015 35.9174 10.2156C29.7897 12.2747 24.1282 15.5221 19.2571 19.772C13.8683 24.8122 13.0082 29.2005 13.3618 31.0335C14.6156 37.503 23.4748 41.7308 27.1184 44.8678V44.8853C26.0451 45.4144 18.1814 49.399 16.3358 53.4612C14.3949 57.7542 16.6442 60.8335 18.1362 61.2473C20.3763 61.7866 22.729 61.611 24.8642 60.7453C26.9995 59.8796 28.8101 58.3672 30.0422 56.4202C31.0604 54.8427 31.6974 53.0499 31.9029 51.1836C32.1083 49.3173 31.8765 47.4289 31.2258 45.6677C32.9807 45.2218 34.805 45.1171 36.5995 45.3593C42.7581 46.0789 43.9667 49.9231 43.736 51.5329C43.6275 52.106 43.3969 52.6489 43.0598 53.1249C42.7228 53.6009 42.2872 53.9987 41.7826 54.2912C41.3513 54.5596 41.2184 54.6498 41.2561 54.8504C41.3087 55.1388 41.5068 55.1288 41.8754 55.0661C42.8009 54.7746 43.6164 54.2096 44.2144 53.4455C44.8124 52.6814 45.165 51.7541 45.2255 50.7857C45.3735 47.0243 41.7601 42.7965 35.3607 42.9044C33.5021 42.8513 31.6475 43.1055 29.8717 43.6566C29.7828 43.5551 29.6925 43.4548 29.6008 43.3557C25.6439 39.1355 18.3318 36.149 18.6402 30.4743C18.7531 28.4106 19.4702 22.9792 32.6827 16.3893C43.5154 10.9905 52.1866 12.4774 53.6861 15.7699C55.8276 20.4741 49.0521 29.213 37.8031 30.4743C36.5598 30.7267 35.2756 30.6959 34.0458 30.3843C32.816 30.0726 31.6722 29.488 30.6992 28.6739C30.1074 28.0219 30.0196 27.9943 29.7989 28.1147C29.4404 28.3128 29.6686 28.8895 29.7989 29.2306C30.2297 30.0068 30.8111 30.6893 31.5091 31.2379C32.2071 31.7865 33.0076 32.1901 33.8637 32.4252C38.2865 33.3862 42.8997 32.93 47.0486 31.1213C53.8717 28.4908 59.1927 21.1562 57.6305 15.0251ZM28.6329 46.7986C29.131 48.5155 29.1057 50.342 28.5602 52.0445C28.5017 52.2217 28.4373 52.3972 28.3671 52.5711C28.2969 52.7449 28.2208 52.9121 28.1389 53.0726C27.7169 53.936 27.1703 54.7328 26.5165 55.4372C24.4779 57.6614 21.6268 58.504 20.4056 57.7943C19.0866 57.0295 19.7461 53.8926 22.1107 51.3925C23.9277 49.5958 26.0225 48.1039 28.3145 46.9741L28.6329 46.7986Z" fill="white"/>
<path fill-rule="evenodd" clip-rule="evenodd" d="M22.4621 23.1986C24.5295 21.1695 27.7272 18.8609 32.6827 16.3893C34.2855 15.5904 35.8411 14.9423 37.3331 14.4286C37.3558 14.4207 37.3786 14.4129 37.4013 14.4052C45.9587 11.478 52.4118 12.972 53.6861 15.7699C53.7213 15.8472 53.7541 15.9257 53.7845 16.0051C53.7846 16.0054 53.7847 16.0056 53.7848 16.0059C55.103 19.453 51.9243 24.8552 45.8599 28.0381C45.8178 28.0602 45.7756 28.0822 45.7332 28.1041C43.4606 29.2776 40.7895 30.1395 37.8031 30.4743C36.6792 30.7025 35.5219 30.6992 34.4016 30.4663C34.3658 30.4588 34.3301 30.4512 34.2944 30.4433C34.257 30.435 34.2196 30.4264 34.1822 30.4176C34.1367 30.4069 34.0912 30.3958 34.0458 30.3843C33.5428 30.2568 33.0543 30.0837 32.5859 29.8679C31.9779 29.5878 31.404 29.2358 30.8768 28.8184C30.831 28.7822 30.7855 28.7454 30.7404 28.7082C30.7266 28.6968 30.7129 28.6853 30.6992 28.6739C30.1074 28.0219 30.0196 27.9943 29.7989 28.1147C29.4464 28.3094 29.661 28.8702 29.7923 29.2131L29.7989 29.2306C29.8309 29.2881 29.8637 29.3452 29.8973 29.4017C29.9239 29.4465 29.951 29.491 29.9786 29.5351C30.3837 30.1818 30.8973 30.7549 31.4975 31.2288C31.5014 31.2318 31.5052 31.2348 31.5091 31.2379C31.518 31.2449 31.527 31.2519 31.5359 31.2589C31.9504 31.5812 32.4006 31.8527 32.8767 32.0685C33.0967 32.1682 33.3222 32.256 33.5523 32.3315C33.6552 32.3652 33.7591 32.3965 33.8637 32.4252C35.256 32.7277 36.6671 32.8898 38.0766 32.9135C38.1507 32.9147 38.2248 32.9156 38.2988 32.916C41.2925 32.9354 44.2743 32.3307 47.0486 31.1213C53.8717 28.4908 59.1927 21.1562 57.6305 15.0251C57.5503 14.7106 57.4478 14.4067 57.3242 14.1137C57.3242 14.1135 57.3241 14.1133 57.324 14.113C54.998 8.59921 45.2079 6.92514 35.9174 10.2156C34.1216 10.8191 32.3659 11.5246 30.6583 12.3274C30.6579 12.3276 30.6575 12.3278 30.6571 12.328C26.5385 14.2647 22.7003 16.7679 19.2571 19.772C17.2533 21.6462 15.8756 23.4303 14.9538 25.0263C13.3965 27.7225 13.1397 29.8821 13.3618 31.0335C13.4455 31.4654 13.5631 31.8873 13.7108 32.2996C15.0897 36.1488 19.0909 39.1569 22.6096 41.6026C22.9442 41.8352 23.2744 42.0627 23.5977 42.2854C24.0229 42.5783 24.436 42.8628 24.8308 43.1396C24.8826 43.1759 24.9341 43.212 24.9852 43.248C25.7904 43.8152 26.5143 44.3492 27.1033 44.8549C27.1083 44.8592 27.1134 44.8635 27.1184 44.8678V44.8853C27.11 44.8895 27.1012 44.8938 27.0921 44.8983C26.8745 45.0059 26.429 45.2304 25.8359 45.5505C25.6082 45.6734 25.3588 45.8103 25.0922 45.9602C24.3113 46.3992 23.3831 46.9489 22.4222 47.5789C21.6267 48.1005 20.8087 48.6771 20.0334 49.2918C20.0073 49.3124 19.9813 49.3331 19.9554 49.3539C18.3762 50.6157 16.9844 52.0337 16.3358 53.4612C14.3949 57.7542 16.6442 60.8335 18.1362 61.2473C18.2134 61.2658 18.2907 61.2836 18.3681 61.3005C18.3694 61.3007 18.3708 61.301 18.3721 61.3013C20.5409 61.7734 22.8038 61.5807 24.8642 60.7453C26.4751 60.0923 27.9012 59.0711 29.0335 57.7729C29.0381 57.7676 29.0428 57.7623 29.0474 57.7569C29.4106 57.3389 29.7434 56.8923 30.0422 56.4202C30.4268 55.8244 30.757 55.1979 31.0301 54.5482C31.0373 54.5309 31.0446 54.5136 31.0518 54.4962C31.1515 54.256 31.2434 54.0126 31.3273 53.7665C31.41 53.5243 31.485 53.2795 31.5521 53.0324C31.5546 53.0234 31.557 53.0144 31.5594 53.0054C31.7199 52.4096 31.8349 51.8006 31.9029 51.1836C32.0088 50.2211 31.9985 49.2527 31.8743 48.2989C31.8675 48.2468 31.8604 48.1947 31.853 48.1427C31.8522 48.1376 31.8515 48.1324 31.8507 48.1273C31.7469 47.4101 31.5786 46.7018 31.3469 46.0114C31.3083 45.8963 31.2679 45.7817 31.2258 45.6677C31.5265 45.5913 31.8292 45.5249 32.1335 45.4686C32.559 45.3898 32.9874 45.3306 33.4175 45.2912C34.0409 45.2341 34.6678 45.2184 35.2939 45.2443C35.3294 45.2458 35.3648 45.2474 35.4003 45.2492C35.7275 45.2652 36.0544 45.2926 36.3805 45.3315C36.4535 45.3402 36.5265 45.3494 36.5995 45.3593C41.7913 45.966 43.4653 48.7932 43.7247 50.6303C43.7276 50.6511 43.7304 50.6718 43.733 50.6923C43.7344 50.704 43.7358 50.7156 43.7372 50.7271C43.7725 51.0306 43.7688 51.3043 43.736 51.5329C43.6563 51.9543 43.5104 52.3594 43.3048 52.7336C43.2308 52.8683 43.1491 52.9989 43.0598 53.1249C42.7228 53.6009 42.2872 53.9987 41.7826 54.2912C41.7707 54.2987 41.7589 54.306 41.7474 54.3132C41.7153 54.3332 41.6849 54.3522 41.6563 54.3703C41.3253 54.5798 41.2224 54.6709 41.2561 54.8504C41.3087 55.1388 41.5068 55.1288 41.8754 55.0661C41.9755 55.0346 42.0743 54.9999 42.1717 54.962C42.1792 54.9591 42.1868 54.9561 42.1944 54.9531C42.486 54.8382 42.7646 54.6953 43.0267 54.5271C43.033 54.5231 43.0393 54.519 43.0456 54.5149C43.3763 54.3005 43.6802 54.0456 43.95 53.7553C44.0422 53.6561 44.1305 53.5528 44.2144 53.4455C44.603 52.9491 44.8879 52.3837 45.0564 51.7829C45.0619 51.7635 45.0672 51.744 45.0724 51.7244C45.0752 51.714 45.078 51.7036 45.0807 51.6931C45.1575 51.3974 45.2063 51.0936 45.2255 50.7857C45.361 47.3421 42.3438 43.5075 36.9224 42.967C36.9081 42.9655 36.8938 42.9641 36.8795 42.9628C36.3924 42.9159 35.886 42.8955 35.3607 42.9044C34.491 42.8795 33.6221 42.922 32.7618 43.0306C32.5518 43.0572 32.3424 43.0876 32.1335 43.122C31.6377 43.2037 31.1453 43.3075 30.658 43.4333C30.3944 43.5013 30.1322 43.5758 29.8717 43.6566C29.7828 43.5551 29.6925 43.4548 29.6008 43.3557C29.3986 43.1401 29.1877 42.9276 28.9694 42.7179C28.5683 42.3324 28.1425 41.9561 27.7013 41.5856C27.6412 41.5352 27.5809 41.4849 27.5203 41.4347C26.8055 40.8426 26.0538 40.2645 25.3029 39.6869C22.0407 37.1778 18.7918 34.6789 18.6366 31.0895C18.6279 30.8879 18.6289 30.6829 18.6402 30.4743C18.6783 29.7783 18.7851 28.6993 19.4167 27.3219C19.9423 26.1759 20.8313 24.8233 22.3465 23.313C22.3846 23.275 22.4232 23.2368 22.4621 23.1986ZM23.9477 49.7552C23.3084 50.2681 22.6952 50.8145 22.1107 51.3925C20.9817 52.5861 20.2414 53.925 19.9196 55.0815C19.9189 55.0839 19.9183 55.0862 19.9176 55.0886C19.7792 55.5882 19.7191 56.0536 19.7395 56.4584C19.7402 56.4723 19.741 56.4861 19.7419 56.4999C19.7806 57.0979 19.9992 57.5587 20.4056 57.7943C21.0909 58.1926 22.2895 58.102 23.5698 57.5527C24.5709 57.1232 25.6219 56.4132 26.5165 55.4372C26.7582 55.1768 26.9852 54.9039 27.1966 54.6196C27.2027 54.6114 27.2087 54.6033 27.2147 54.5951C27.5679 54.1173 27.8774 53.6078 28.1389 53.0726C28.1863 52.9798 28.2316 52.8848 28.2751 52.7876C28.3068 52.7166 28.3375 52.6444 28.3671 52.5711C28.4373 52.3972 28.5017 52.2217 28.5602 52.0445C28.6862 51.6513 28.7844 51.2516 28.8548 50.8481C28.9292 50.4218 28.9727 49.9914 28.985 49.5602C28.9886 49.4342 28.9896 49.3081 28.9879 49.1821C28.9855 48.9972 28.9773 48.8124 28.9634 48.6279C28.9528 48.487 28.9389 48.3463 28.9216 48.206C28.9146 48.1487 28.907 48.0915 28.8988 48.0344C28.8396 47.6184 28.7509 47.2054 28.6329 46.7986L28.3145 46.9741C28.2698 46.9961 28.2253 47.0183 28.1808 47.0405C27.7176 47.2725 27.2625 47.5193 26.8163 47.7805C26.7686 47.8084 26.7209 47.8365 26.6734 47.8648C25.7217 48.4308 24.811 49.0625 23.9477 49.7552Z" fill="#1B1A1A"/>
</svg>
