<svg width="56" height="56" viewBox="0 0 56 56" fill="none" xmlns="http://www.w3.org/2000/svg">
<path d="M36.4351 0H19.3204C3.7024 0 0 3.70356 0 19.3265V36.4465C0 52.0694 3.7024 55.7729 19.3204 55.7729H36.4351C52.0532 55.7729 55.7556 52.0694 55.7556 36.4465V19.3265C55.7556 3.70356 52.0166 0 36.4351 0ZM45.0107 39.7858H40.9634C39.4301 39.7858 38.958 38.5693 36.1999 35.7737C33.8042 33.4505 32.7432 33.142 32.1525 33.142C31.318 33.142 31.081 33.3773 31.081 34.5224V38.1806C31.081 39.1618 30.7726 39.7509 28.1766 39.7509C23.8835 39.7509 19.1201 37.1541 15.7801 32.3159C10.7431 25.226 9.3649 19.9155 9.3649 18.8176C9.3649 18.2267 9.60011 17.6742 10.7344 17.6742H14.7904C15.8167 17.6742 16.2069 18.1466 16.6059 19.2446C18.6113 25.036 21.9513 30.1095 23.3295 30.1095C23.8382 30.1095 24.0735 29.8742 24.0735 28.5758V22.5943C23.9184 19.8354 22.467 19.5984 22.467 18.6189C22.467 18.1466 22.8573 17.6742 23.4828 17.6742H29.8614C30.7238 17.6742 31.0409 18.1466 31.0409 19.1626V27.232C31.0409 28.1035 31.4312 28.4119 31.6664 28.4119C32.1752 28.4119 32.6108 28.1035 33.5533 27.1588C36.4665 23.891 38.5538 18.8524 38.5538 18.8524C38.8256 18.2616 39.2977 17.7091 40.3239 17.7091H44.38C45.5962 17.7091 45.868 18.3348 45.5962 19.2062C45.0874 21.566 40.1236 28.574 40.1236 28.574C39.6967 29.2816 39.5329 29.5901 40.1236 30.3796C40.5592 30.9704 41.9757 32.1957 42.9182 33.2937C44.6518 35.2631 45.9847 36.9153 46.3401 38.0586C46.7391 39.1932 46.1502 39.784 45.0055 39.784L45.0107 39.7858Z" fill="white"/>
</svg>
